<svg xmlns="http://www.w3.org/2000/svg" width="580" height="120" viewBox="0 0 580 120" role="img" aria-label="Sparpreis-Explorer">
  <title>Sparpreis-Explorer</title>
  <!-- app icon: ICE on a track, with a Sparpreis "%" badge (DB-inspired colours, not the DB logo) -->
  <g transform="translate(8 12)">
    <rect width="96" height="96" rx="22" fill="#EC0016"/>
    <path d="M9 66 V46 Q9 38 17 38 H48 C65 38 80 48 89 66 Z" fill="#fff"/>
    <g fill="#EC0016"><rect x="15" y="45" width="8" height="6" rx="1.5"/><rect x="26" y="45" width="8" height="6" rx="1.5"/><rect x="37" y="45" width="8" height="6" rx="1.5"/>
      <path d="M49 45 H55 C62 45 68 48 72 52 H49 Z"/>
      <rect x="9" y="58" width="74" height="3"/>
    </g>
    <rect x="6" y="71" width="84" height="4" rx="2" fill="#fff"/>
    <g fill="#fff" opacity=".65">
      <rect x="12" y="78" width="7" height="3" rx="1"/><rect x="28" y="78" width="7" height="3" rx="1"/>
      <rect x="44" y="78" width="7" height="3" rx="1"/><rect x="60" y="78" width="7" height="3" rx="1"/>
      <rect x="76" y="78" width="7" height="3" rx="1"/>
    </g>
    <circle cx="74" cy="22" r="13" fill="#fff"/>
    <text x="74" y="28.5" text-anchor="middle" font-family="Helvetica, Arial, sans-serif" font-size="17" font-weight="800" fill="#EC0016">%</text>
  </g>
  <text x="124" y="66" font-family="Helvetica, Arial, sans-serif" font-size="46" font-weight="800" letter-spacing="-1" fill="#F0F3F5">Sparpreis<tspan fill="#EC0016">Explorer</tspan></text>
  <text x="126" y="96" font-family="Helvetica, Arial, sans-serif" font-size="17" font-weight="500" fill="#AFB4BB">Günstige Tickets · wenig Fernverkehr · ein Fahrschein</text>
</svg>
